<?xml version="1.0" encoding="UTF-8" standalone="no"?>
<!-- Created with Inkscape (http://www.inkscape.org/) -->

<svg
   xmlns:dc="http://purl.org/dc/elements/1.1/"
   xmlns:cc="http://creativecommons.org/ns#"
   xmlns:rdf="http://www.w3.org/1999/02/22-rdf-syntax-ns#"
   xmlns:svg="http://www.w3.org/2000/svg"
   xmlns="http://www.w3.org/2000/svg"
   xmlns:sodipodi="http://sodipodi.sourceforge.net/DTD/sodipodi-0.dtd"
   xmlns:inkscape="http://www.inkscape.org/namespaces/inkscape"
   width="1231.0974"
   height="1231.0974"
   id="svg2"
   version="1.1"
   inkscape:version="0.48.4 r9939"
   sodipodi:docname="dragger.svg">
  <defs
     id="defs4" />
  <sodipodi:namedview
     id="base"
     pagecolor="#ffffff"
     bordercolor="#666666"
     borderopacity="1.0"
     inkscape:pageopacity="0.0"
     inkscape:pageshadow="2"
     inkscape:zoom="0.175"
     inkscape:cx="1352.548"
     inkscape:cy="945.27776"
     inkscape:document-units="px"
     inkscape:current-layer="layer1"
     showgrid="false"
     showborder="true"
     inkscape:showpageshadow="false"
     fit-margin-top="0"
     fit-margin-left="0"
     fit-margin-right="0"
     fit-margin-bottom="0"
     inkscape:window-width="2044"
     inkscape:window-height="1105"
     inkscape:window-x="0"
     inkscape:window-y="22"
     inkscape:window-maximized="0" />
  <metadata
     id="metadata7">
    <rdf:RDF>
      <cc:Work
         rdf:about="">
        <dc:format>image/svg+xml</dc:format>
        <dc:type
           rdf:resource="http://purl.org/dc/dcmitype/StillImage" />
        <dc:title></dc:title>
      </cc:Work>
    </rdf:RDF>
  </metadata>
  <g
     inkscape:label="Layer 1"
     inkscape:groupmode="layer"
     id="layer1"
     transform="translate(376.19021,19.687889)">
    <path
       sodipodi:type="star"
       style="fill:none"
       id="path2987"
       sodipodi:sides="8"
       sodipodi:cx="398.57144"
       sodipodi:cy="345.52304"
       sodipodi:r1="115.29908"
       sodipodi:r2="114.4313"
       sodipodi:arg1="0.59143902"
       sodipodi:arg2="0.9841381"
       inkscape:flatsided="false"
       inkscape:rounded="0"
       inkscape:randomized="0"
       d="m 494.28573,409.80876 -32.36728,31.01212 -41.12365,17.83925 -44.81601,-0.95824 -41.69306,-16.46456 -31.01213,-32.36729 -17.83924,-41.12364 0.95823,-44.81601 16.46457,-41.69306 32.36728,-31.01213 41.12365,-17.83925 44.81601,0.95824 41.69306,16.46456 31.01212,32.36729 17.83925,41.12364 -0.95824,44.81602 z"
       transform="translate(0,308.2677)" />
    <path
       sodipodi:type="star"
       style="fill:none"
       id="path2989"
       sodipodi:sides="8"
       sodipodi:cx="322.85715"
       sodipodi:cy="186.95161"
       sodipodi:r1="10.101525"
       sodipodi:r2="10.025498"
       sodipodi:arg1="0.78539816"
       sodipodi:arg2="1.1780972"
       inkscape:flatsided="false"
       inkscape:rounded="0"
       inkscape:randomized="0"
       d="m 330,194.09447 -3.30626,2.1195 -3.83659,0.83917 -3.83659,-0.83917 -3.30627,-2.1195 -2.1195,-3.30626 -0.83917,-3.8366 0.83917,-3.83659 2.1195,-3.30626 3.30626,-2.1195 3.8366,-0.83917 3.83659,0.83917 3.30626,2.1195 2.1195,3.30626 0.83917,3.83659 -0.83917,3.8366 z"
       transform="translate(0,308.2677)" />
    <path
       sodipodi:type="star"
       style="fill:none;stroke:#000000;stroke-width:29.10000038;stroke-miterlimit:4;stroke-dasharray:none"
       id="path3780"
       sodipodi:sides="40"
       sodipodi:cx="234.28571"
       sodipodi:cy="284.14014"
       sodipodi:r1="601.04907"
       sodipodi:r2="115.47745"
       sodipodi:arg1="-2.3432472"
       sodipodi:arg2="2.6552479"
       inkscape:flatsided="false"
       inkscape:rounded="0"
       inkscape:randomized="0"
       d="M -185.18203,-146.33264 132.19819,338.11402 -112.6769,-206.65201 125.01168,321.47951 -31.628412,-254.88646 120.51586,303.92557 55.967769,-289.84828 118.82143,285.88446 147.95473,-310.6766 119.97012,267.80039 242.06744,-316.85856 123.93363,250.11866 335.98855,-308.24194 130.61438,233.27465 427.40539,-285.0389 139.84786,217.68312 514.06698,-247.82079 151.40672,203.72799 593.83943,-197.50403 165.00633,191.75286 664.75848,-135.3276 180.31182,182.05262 725.07786,-62.822474 196.94634,174.86611 773.3123,18.226019 214.50027,170.37029 808.27412,105.8222 232.54139,168.67586 829.10244,197.80916 250.62545,169.82455 835.2844,291.92188 268.30718,173.78806 826.66778,385.84298 285.15119,180.46881 803.46474,477.25982 300.74272,189.70229 766.24663,563.92142 314.69786,201.26115 715.92987,643.69387 326.67298,214.86076 653.75344,714.61291 336.37322,230.16625 581.24832,774.93229 343.55973,246.80077 500.19982,823.16673 348.05555,264.3547 412.60364,858.12855 349.74998,282.39582 320.61668,878.95687 348.60129,300.47988 226.50397,885.13883 344.63778,318.16161 132.58286,876.52221 337.95703,335.00562 41.166021,853.31917 328.72355,350.59715 -45.495573,816.10106 317.1647,364.55229 -125.26802,765.7843 303.56509,376.52741 -196.18707,703.60787 288.25959,386.22765 -256.50644,631.10275 271.62507,393.41416 -304.74089,550.05425 254.07114,397.90998 -339.70271,462.45807 236.03002,399.60441 -360.53103,370.47111 217.94596,398.45572 -366.71299,276.3584 200.26423,394.49221 -358.09637,182.43729 183.42022,387.81146 -334.89333,91.020452 167.82869,378.57798 -297.67522,4.3588582 153.87356,367.01913 -247.35846,-75.413592 141.89843,353.41952 z"
       transform="translate(5.0727795,311.72067)"
       inkscape:transform-center-x="0.034198955"
       inkscape:transform-center-y="0.0030369547" />
  </g>
</svg>
